# xmcd
#
# Track frame offsets: 
#        150
#        13376
#        23425
#        35217
#        52192
#        71145
#        88008
#        97746
#        117628
#        138272
#        153466
#        166953
#        178681
#        192906
#        208334
#        233864
#        250462
#        265616
#        280777
#
# Disc length: 4086 seconds
#
# Revision: 0
# Processed by: cddbd v1.5.2PL0 Copyright (c) Steve Scherf et al.
# Submitted via: ExactAudioCopy v0.95a3
#
DISCID=170ff413
DTITLE=Nat King Thomas mit den Boogaloo Bandits - Volume 2
DYEAR=2014
DGENRE=Blues
TTITLE0=Nicht Zeit, noch Raum
TTITLE1=Für dich
TTITLE2=Dralle Deern
TTITLE3=Sommer '87
TTITLE4=So steh ich hier
TTITLE5=Du fehlst mir
TTITLE6=Dat du min Leevsten büst
TTITLE7=Hands Up!
TTITLE8=Du und ich
TTITLE9=Kölner Dom
TTITLE10=Die Engel weinen (Bass)
TTITLE11=Szeneladen
TTITLE12=Willkommen in der Hölle
TTITLE13=Bereit für die neue Zeit
TTITLE14=Zum Tanze da geht ein Mädel
TTITLE15=Eine Prise Voodoozauber (Trommeln)
TTITLE16=Ich war wer letzte Nacht
TTITLE17=Wieder auf der Straße
TTITLE18=Nachtschicht im Piratensender (Gitarre) 
EXTD=
EXTT0=
EXTT1=
EXTT2=
EXTT3=
EXTT4=
EXTT5=
EXTT6=
EXTT7=
EXTT8=
EXTT9=
EXTT10=
EXTT11=
EXTT12=
EXTT13=
EXTT14=
EXTT15=
EXTT16=
EXTT17=
EXTT18=
PLAYORDER=
